<svg width="16" height="15" viewBox="0 0 16 15" fill="none" xmlns="http://www.w3.org/2000/svg">
	<path d="M5.35301 4.619L7.53701 0.292C7.57896 0.204954 7.6445 0.131433 7.72618 0.0798096C7.80785 0.0281859 7.90239 0.000533281 7.99901 0C8.18201 0 8.36501 0.097 8.46401 0.292L10.648 4.619L15.546 5.315C15.6681 5.33419 15.7798 5.39491 15.8624 5.48691C15.9449 5.57891 15.9931 5.69655 15.999 5.82C16.006 5.90219 15.9943 5.98489 15.9649 6.06194C15.9355 6.13899 15.889 6.2084 15.829 6.265L12.306 9.621L13.136 14.351C13.214 14.794 12.776 15.141 12.39 14.943L7.99901 12.687L3.61001 14.943C3.5641 14.9668 3.51489 14.9837 3.46401 14.993C3.12201 15.053 2.79601 14.739 2.86401 14.351L3.69401 9.621L0.172011 6.265C0.117257 6.2132 0.0737344 6.15069 0.0441462 6.08137C0.014558 6.01204 -0.000464597 5.93737 1.0947e-05 5.862C6.29599e-05 5.75544 0.0294723 5.65095 0.085011 5.56C0.12441 5.49407 0.17811 5.43783 0.242149 5.39542C0.306188 5.35302 0.378931 5.32553 0.455011 5.315L5.35301 4.619ZM7.99901 11.527C8.07973 11.5267 8.15933 11.5459 8.23101 11.583L11.917 13.477L11.223 9.52C11.2066 9.429 11.2128 9.33536 11.2411 9.24731C11.2693 9.15926 11.3187 9.07949 11.385 9.015L14.292 6.245L10.24 5.669C10.1561 5.65633 10.0765 5.62351 10.0081 5.57335C9.93963 5.52319 9.88437 5.45719 9.84701 5.381L8.00001 1.723L7.99901 1.726V11.526V11.527Z" fill="black" />
</svg>
